<svg xmlns="http://www.w3.org/2000/svg" viewBox="0 0 200 200" width="200" height="200">
  <defs>
    <radialGradient id="fade">
      <stop offset="0%" stop-color="white" stop-opacity="1"/>
      <stop offset="55%" stop-color="white" stop-opacity="0.85"/>
      <stop offset="100%" stop-color="white" stop-opacity="0"/>
    </radialGradient>
    <mask id="edge-fade">
      <rect width="200" height="200" fill="url(#fade)"/>
    </mask>
  </defs>
  <g mask="url(#edge-fade)">
    <circle cx="135.4" cy="38.5" r="0.53" fill="#2C2824"/>
    <circle cx="109.3" cy="51.4" r="1.04" fill="#2C2824"/>
    <circle cx="96.7" cy="138.2" r="0.84" fill="#2C2824"/>
    <circle cx="121.7" cy="113.1" r="0.45" fill="#2C2824"/>
    <circle cx="84.9" cy="127.0" r="0.44" fill="#2C2824"/>
    <circle cx="145.4" cy="17.5" r="0.60" fill="#2C2824"/>
    <circle cx="37.3" cy="45.3" r="0.85" fill="#2C2824"/>
    <circle cx="184.3" cy="117.5" r="0.47" fill="#2C2824"/>
    <circle cx="69.3" cy="151.5" r="0.84" fill="#2C2824"/>
    <circle cx="133.4" cy="163.0" r="0.75" fill="#2C2824"/>
    <circle cx="125.9" cy="7.8" r="0.44" fill="#2C2824"/>
    <circle cx="96.1" cy="111.3" r="0.78" fill="#2C2824"/>
    <circle cx="158.0" cy="4.8" r="1.14" fill="#2C2824"/>
    <circle cx="57.7" cy="111.1" r="0.49" fill="#2C2824"/>
    <circle cx="120.5" cy="158.6" r="0.83" fill="#2C2824"/>
    <circle cx="113.6" cy="124.4" r="1.14" fill="#2C2824"/>
    <circle cx="85.4" cy="185.8" r="0.84" fill="#2C2824"/>
    <circle cx="132.2" cy="57.7" r="0.71" fill="#2C2824"/>
    <circle cx="24.6" cy="67.9" r="0.44" fill="#2C2824"/>
    <circle cx="30.5" cy="105.9" r="0.94" fill="#2C2824"/>
    <circle cx="185.1" cy="3.8" r="0.80" fill="#2C2824"/>
    <circle cx="128.3" cy="6.6" r="0.50" fill="#2C2824"/>
    <circle cx="72.6" cy="114.4" r="0.83" fill="#2C2824"/>
    <circle cx="21.9" cy="199.6" r="0.89" fill="#2C2824"/>
    <circle cx="73.2" cy="52.2" r="0.69" fill="#2C2824"/>
    <circle cx="63.5" cy="98.8" r="1.11" fill="#2C2824"/>
    <circle cx="114.6" cy="59.2" r="0.47" fill="#2C2824"/>
    <circle cx="134.6" cy="100.9" r="0.58" fill="#2C2824"/>
    <circle cx="43.3" cy="46.3" r="1.11" fill="#2C2824"/>
    <circle cx="59.0" cy="13.3" r="1.17" fill="#2C2824"/>
    <circle cx="103.0" cy="93.5" r="0.94" fill="#2C2824"/>
    <circle cx="26.8" cy="16.6" r="0.60" fill="#2C2824"/>
    <circle cx="193.3" cy="39.0" r="0.71" fill="#2C2824"/>
    <circle cx="167.5" cy="103.2" r="0.62" fill="#2C2824"/>
    <circle cx="160.0" cy="38.6" r="0.52" fill="#2C2824"/>
    <circle cx="98.0" cy="54.0" r="0.62" fill="#2C2824"/>
    <circle cx="151.8" cy="92.9" r="0.78" fill="#2C2824"/>
    <circle cx="161.9" cy="5.3" r="1.00" fill="#2C2824"/>
    <circle cx="120.6" cy="105.8" r="0.90" fill="#2C2824"/>
    <circle cx="127.7" cy="112.7" r="1.14" fill="#2C2824"/>
    <circle cx="132.1" cy="63.5" r="0.54" fill="#2C2824"/>
    <circle cx="92.1" cy="36.5" r="1.13" fill="#2C2824"/>
    <circle cx="63.9" cy="139.4" r="1.16" fill="#2C2824"/>
    <circle cx="177.5" cy="31.2" r="0.43" fill="#2C2824"/>
    <circle cx="143.7" cy="46.4" r="0.80" fill="#2C2824"/>
    <circle cx="146.7" cy="41.0" r="1.17" fill="#2C2824"/>
    <circle cx="61.9" cy="60.5" r="0.70" fill="#2C2824"/>
    <circle cx="111.7" cy="146.1" r="0.81" fill="#2C2824"/>
    <circle cx="152.5" cy="67.0" r="1.04" fill="#2C2824"/>
    <circle cx="54.1" cy="74.1" r="0.98" fill="#2C2824"/>
    <circle cx="129.5" cy="162.5" r="0.48" fill="#2C2824"/>
    <circle cx="55.1" cy="180.5" r="0.84" fill="#2C2824"/>
    <circle cx="112.1" cy="64.5" r="1.06" fill="#2C2824"/>
    <circle cx="122.9" cy="26.3" r="1.16" fill="#2C2824"/>
    <circle cx="100.1" cy="155.6" r="0.60" fill="#2C2824"/>
    <circle cx="157.3" cy="103.2" r="0.86" fill="#2C2824"/>
    <circle cx="67.2" cy="69.3" r="1.14" fill="#2C2824"/>
    <circle cx="99.6" cy="160.1" r="1.18" fill="#2C2824"/>
    <circle cx="0.7" cy="143.1" r="1.03" fill="#2C2824"/>
    <circle cx="29.9" cy="29.1" r="1.03" fill="#2C2824"/>
    <circle cx="50.8" cy="16.2" r="1.02" fill="#2C2824"/>
    <circle cx="35.6" cy="124.9" r="0.63" fill="#2C2824"/>
    <circle cx="89.6" cy="143.1" r="1.08" fill="#2C2824"/>
    <circle cx="89.5" cy="35.2" r="0.88" fill="#2C2824"/>
    <circle cx="188.6" cy="125.2" r="0.55" fill="#2C2824"/>
    <circle cx="51.5" cy="108.5" r="0.66" fill="#2C2824"/>
    <circle cx="143.0" cy="60.7" r="1.10" fill="#2C2824"/>
    <circle cx="81.6" cy="190.4" r="0.95" fill="#2C2824"/>
    <circle cx="167.2" cy="56.8" r="1.15" fill="#2C2824"/>
    <circle cx="37.9" cy="139.8" r="0.82" fill="#2C2824"/>
    <circle cx="156.8" cy="188.4" r="0.54" fill="#2C2824"/>
    <circle cx="18.2" cy="193.3" r="0.49" fill="#2C2824"/>
    <circle cx="131.8" cy="57.9" r="0.82" fill="#2C2824"/>
    <circle cx="156.2" cy="161.0" r="1.17" fill="#2C2824"/>
    <circle cx="105.1" cy="121.1" r="0.65" fill="#2C2824"/>
    <circle cx="69.4" cy="97.9" r="0.86" fill="#2C2824"/>
    <circle cx="186.0" cy="92.0" r="0.60" fill="#2C2824"/>
    <circle cx="141.5" cy="134.4" r="0.63" fill="#2C2824"/>
    <circle cx="99.7" cy="36.6" r="0.79" fill="#2C2824"/>
    <circle cx="9.9" cy="61.6" r="0.68" fill="#2C2824"/>
    <circle cx="123.5" cy="184.3" r="1.00" fill="#2C2824"/>
    <circle cx="19.6" cy="192.7" r="0.63" fill="#2C2824"/>
    <circle cx="32.0" cy="105.2" r="0.84" fill="#2C2824"/>
    <circle cx="106.7" cy="184.3" r="0.75" fill="#2C2824"/>
    <circle cx="147.8" cy="86.2" r="0.80" fill="#2C2824"/>
    <circle cx="189.6" cy="18.9" r="1.06" fill="#2C2824"/>
    <circle cx="158.8" cy="106.7" r="1.13" fill="#2C2824"/>
    <circle cx="144.1" cy="32.6" r="1.11" fill="#2C2824"/>
    <circle cx="178.7" cy="159.0" r="0.61" fill="#2C2824"/>
    <circle cx="87.5" cy="156.5" r="0.82" fill="#2C2824"/>
    <circle cx="127.5" cy="0.8" r="0.40" fill="#2C2824"/>
    <circle cx="172.7" cy="131.8" r="0.83" fill="#2C2824"/>
    <circle cx="41.5" cy="199.9" r="0.58" fill="#2C2824"/>
    <circle cx="75.1" cy="149.2" r="1.12" fill="#2C2824"/>
    <circle cx="128.4" cy="96.4" r="0.84" fill="#2C2824"/>
    <circle cx="81.4" cy="111.7" r="0.50" fill="#2C2824"/>
    <circle cx="84.3" cy="152.6" r="0.97" fill="#2C2824"/>
    <circle cx="12.4" cy="168.4" r="0.53" fill="#2C2824"/>
    <circle cx="182.4" cy="69.0" r="0.67" fill="#2C2824"/>
    <circle cx="69.6" cy="92.6" r="0.45" fill="#2C2824"/>
    <circle cx="17.4" cy="152.2" r="0.55" fill="#2C2824"/>
    <circle cx="189.8" cy="173.8" r="0.92" fill="#2C2824"/>
    <circle cx="118.6" cy="74.8" r="0.85" fill="#2C2824"/>
    <circle cx="154.6" cy="27.3" r="0.85" fill="#2C2824"/>
    <circle cx="156.0" cy="164.1" r="1.16" fill="#2C2824"/>
    <circle cx="90.2" cy="191.4" r="0.82" fill="#2C2824"/>
    <circle cx="13.8" cy="68.7" r="0.91" fill="#2C2824"/>
    <circle cx="131.1" cy="30.7" r="1.03" fill="#2C2824"/>
    <circle cx="149.0" cy="111.2" r="1.12" fill="#2C2824"/>
    <circle cx="92.2" cy="123.3" r="0.76" fill="#2C2824"/>
    <circle cx="151.1" cy="107.1" r="1.17" fill="#2C2824"/>
    <circle cx="91.3" cy="34.3" r="1.15" fill="#2C2824"/>
    <circle cx="103.2" cy="194.5" r="1.07" fill="#2C2824"/>
    <circle cx="53.6" cy="5.4" r="0.76" fill="#2C2824"/>
    <circle cx="17.6" cy="120.4" r="0.45" fill="#2C2824"/>
    <circle cx="144.8" cy="36.8" r="0.83" fill="#2C2824"/>
    <circle cx="81.2" cy="105.1" r="0.96" fill="#2C2824"/>
    <circle cx="63.1" cy="187.0" r="0.89" fill="#2C2824"/>
  </g>
</svg>