<svg xmlns="http://www.w3.org/2000/svg" viewBox="0 0 200 200" width="200" height="200">
  <defs>
    <radialGradient id="fade">
      <stop offset="0%" stop-color="white" stop-opacity="1"/>
      <stop offset="55%" stop-color="white" stop-opacity="0.85"/>
      <stop offset="100%" stop-color="white" stop-opacity="0"/>
    </radialGradient>
    <mask id="edge-fade">
      <rect width="200" height="200" fill="url(#fade)"/>
    </mask>
  </defs>
  <g mask="url(#edge-fade)">
    <circle cx="120.2" cy="89.7" r="1.17" fill="#2C2824"/>
    <circle cx="124.9" cy="173.1" r="0.75" fill="#2C2824"/>
    <circle cx="39.5" cy="100.1" r="1.11" fill="#2C2824"/>
    <circle cx="0.8" cy="94.2" r="0.55" fill="#2C2824"/>
    <circle cx="12.4" cy="37.1" r="1.03" fill="#2C2824"/>
    <circle cx="5.4" cy="34.6" r="0.99" fill="#2C2824"/>
    <circle cx="161.8" cy="63.9" r="0.54" fill="#2C2824"/>
    <circle cx="10.3" cy="111.3" r="0.75" fill="#2C2824"/>
    <circle cx="14.9" cy="132.0" r="1.19" fill="#2C2824"/>
    <circle cx="185.6" cy="17.6" r="0.93" fill="#2C2824"/>
    <circle cx="141.3" cy="35.9" r="1.32" fill="#2C2824"/>
    <circle cx="183.2" cy="86.8" r="0.84" fill="#2C2824"/>
    <circle cx="119.2" cy="64.6" r="0.80" fill="#2C2824"/>
    <circle cx="90.0" cy="168.6" r="1.49" fill="#2C2824"/>
    <circle cx="178.0" cy="86.4" r="0.80" fill="#2C2824"/>
    <circle cx="194.5" cy="35.7" r="1.20" fill="#2C2824"/>
    <circle cx="147.5" cy="127.1" r="1.41" fill="#2C2824"/>
    <circle cx="41.8" cy="120.8" r="0.68" fill="#2C2824"/>
    <circle cx="9.5" cy="141.1" r="0.79" fill="#2C2824"/>
    <circle cx="112.2" cy="58.5" r="0.93" fill="#2C2824"/>
    <circle cx="83.7" cy="137.2" r="0.84" fill="#2C2824"/>
    <circle cx="122.2" cy="109.3" r="0.74" fill="#2C2824"/>
    <circle cx="65.1" cy="59.8" r="1.17" fill="#2C2824"/>
    <circle cx="44.2" cy="33.9" r="0.81" fill="#2C2824"/>
    <circle cx="115.5" cy="41.5" r="0.88" fill="#2C2824"/>
    <circle cx="142.4" cy="182.5" r="0.94" fill="#2C2824"/>
    <circle cx="29.3" cy="123.7" r="0.71" fill="#2C2824"/>
    <circle cx="77.9" cy="109.1" r="0.99" fill="#2C2824"/>
    <circle cx="171.9" cy="168.6" r="0.55" fill="#2C2824"/>
    <circle cx="135.3" cy="152.2" r="1.32" fill="#2C2824"/>
    <circle cx="126.3" cy="167.4" r="1.10" fill="#2C2824"/>
    <circle cx="70.2" cy="89.4" r="1.18" fill="#2C2824"/>
    <circle cx="69.8" cy="187.5" r="0.83" fill="#2C2824"/>
    <circle cx="145.3" cy="191.2" r="0.97" fill="#2C2824"/>
    <circle cx="88.2" cy="113.8" r="1.29" fill="#2C2824"/>
    <circle cx="157.0" cy="39.2" r="1.02" fill="#2C2824"/>
    <circle cx="88.7" cy="93.8" r="0.93" fill="#2C2824"/>
    <circle cx="100.9" cy="53.5" r="1.05" fill="#2C2824"/>
    <circle cx="0.8" cy="29.6" r="0.57" fill="#2C2824"/>
    <circle cx="174.1" cy="86.1" r="0.60" fill="#2C2824"/>
    <circle cx="45.9" cy="140.6" r="0.59" fill="#2C2824"/>
    <circle cx="193.3" cy="150.0" r="1.30" fill="#2C2824"/>
    <circle cx="109.8" cy="161.0" r="0.68" fill="#2C2824"/>
    <circle cx="52.6" cy="134.4" r="1.06" fill="#2C2824"/>
    <circle cx="67.6" cy="56.8" r="1.04" fill="#2C2824"/>
    <circle cx="41.0" cy="188.9" r="0.77" fill="#2C2824"/>
    <circle cx="103.7" cy="172.0" r="1.18" fill="#2C2824"/>
    <circle cx="98.8" cy="150.1" r="1.19" fill="#2C2824"/>
    <circle cx="110.9" cy="109.2" r="1.48" fill="#2C2824"/>
    <circle cx="153.3" cy="61.7" r="1.17" fill="#2C2824"/>
    <circle cx="172.9" cy="77.4" r="0.82" fill="#2C2824"/>
    <circle cx="106.6" cy="167.4" r="1.37" fill="#2C2824"/>
    <circle cx="126.2" cy="154.2" r="1.21" fill="#2C2824"/>
    <circle cx="37.2" cy="169.3" r="1.04" fill="#2C2824"/>
    <circle cx="88.6" cy="123.2" r="1.02" fill="#2C2824"/>
    <circle cx="24.2" cy="75.1" r="1.34" fill="#2C2824"/>
    <circle cx="171.2" cy="125.2" r="1.39" fill="#2C2824"/>
    <circle cx="69.0" cy="20.0" r="0.74" fill="#2C2824"/>
    <circle cx="144.1" cy="103.8" r="1.09" fill="#2C2824"/>
    <circle cx="21.8" cy="156.4" r="1.42" fill="#2C2824"/>
    <circle cx="198.1" cy="116.2" r="0.84" fill="#2C2824"/>
    <circle cx="129.8" cy="6.4" r="1.30" fill="#2C2824"/>
    <circle cx="75.2" cy="40.9" r="1.01" fill="#2C2824"/>
    <circle cx="27.6" cy="16.5" r="0.93" fill="#2C2824"/>
    <circle cx="132.0" cy="120.6" r="0.71" fill="#2C2824"/>
    <circle cx="184.4" cy="104.4" r="0.55" fill="#2C2824"/>
    <circle cx="9.4" cy="65.3" r="1.26" fill="#2C2824"/>
    <circle cx="36.5" cy="128.5" r="0.69" fill="#2C2824"/>
    <circle cx="101.7" cy="123.9" r="1.17" fill="#2C2824"/>
    <circle cx="31.7" cy="195.8" r="0.85" fill="#2C2824"/>
    <circle cx="41.0" cy="103.6" r="0.95" fill="#2C2824"/>
    <circle cx="97.0" cy="50.4" r="0.53" fill="#2C2824"/>
    <circle cx="133.2" cy="13.0" r="1.26" fill="#2C2824"/>
    <circle cx="117.3" cy="109.8" r="1.01" fill="#2C2824"/>
    <circle cx="95.1" cy="90.1" r="0.52" fill="#2C2824"/>
    <circle cx="141.7" cy="0.7" r="0.68" fill="#2C2824"/>
    <circle cx="73.8" cy="145.2" r="0.78" fill="#2C2824"/>
    <circle cx="88.4" cy="93.7" r="0.62" fill="#2C2824"/>
    <circle cx="143.0" cy="119.0" r="1.33" fill="#2C2824"/>
    <circle cx="95.9" cy="1.7" r="0.56" fill="#2C2824"/>
    <circle cx="103.2" cy="97.4" r="1.06" fill="#2C2824"/>
    <circle cx="122.0" cy="170.4" r="1.48" fill="#2C2824"/>
    <circle cx="195.9" cy="193.4" r="1.46" fill="#2C2824"/>
    <circle cx="174.9" cy="135.8" r="0.83" fill="#2C2824"/>
    <circle cx="168.1" cy="90.8" r="1.16" fill="#2C2824"/>
    <circle cx="47.9" cy="124.2" r="1.14" fill="#2C2824"/>
    <circle cx="194.9" cy="81.9" r="1.24" fill="#2C2824"/>
    <circle cx="3.2" cy="136.8" r="0.75" fill="#2C2824"/>
    <circle cx="76.3" cy="168.4" r="0.82" fill="#2C2824"/>
    <circle cx="92.9" cy="105.9" r="0.67" fill="#2C2824"/>
    <circle cx="118.9" cy="14.9" r="1.30" fill="#2C2824"/>
    <circle cx="86.8" cy="119.3" r="0.89" fill="#2C2824"/>
    <circle cx="117.8" cy="33.8" r="0.68" fill="#2C2824"/>
    <circle cx="135.9" cy="141.6" r="1.05" fill="#2C2824"/>
    <circle cx="126.0" cy="179.2" r="0.50" fill="#2C2824"/>
    <circle cx="12.1" cy="19.1" r="0.50" fill="#2C2824"/>
    <circle cx="39.7" cy="148.5" r="0.55" fill="#2C2824"/>
    <circle cx="125.2" cy="117.9" r="1.08" fill="#2C2824"/>
    <circle cx="83.0" cy="117.6" r="1.09" fill="#2C2824"/>
    <circle cx="38.9" cy="27.0" r="1.23" fill="#2C2824"/>
    <circle cx="56.4" cy="184.7" r="0.93" fill="#2C2824"/>
    <circle cx="119.3" cy="67.6" r="1.48" fill="#2C2824"/>
    <circle cx="181.8" cy="101.7" r="0.73" fill="#2C2824"/>
    <circle cx="30.2" cy="64.0" r="1.01" fill="#2C2824"/>
    <circle cx="192.6" cy="44.8" r="0.81" fill="#2C2824"/>
    <circle cx="102.5" cy="78.0" r="0.79" fill="#2C2824"/>
    <circle cx="102.1" cy="72.9" r="0.68" fill="#2C2824"/>
    <circle cx="114.1" cy="180.0" r="1.04" fill="#2C2824"/>
    <circle cx="177.7" cy="117.5" r="0.94" fill="#2C2824"/>
    <circle cx="126.2" cy="91.0" r="1.16" fill="#2C2824"/>
    <circle cx="124.1" cy="68.0" r="1.12" fill="#2C2824"/>
    <circle cx="39.9" cy="69.1" r="1.36" fill="#2C2824"/>
    <circle cx="132.3" cy="122.4" r="1.44" fill="#2C2824"/>
    <circle cx="106.9" cy="104.5" r="1.48" fill="#2C2824"/>
    <circle cx="105.2" cy="135.0" r="1.40" fill="#2C2824"/>
    <circle cx="184.0" cy="77.6" r="1.04" fill="#2C2824"/>
    <circle cx="88.1" cy="64.9" r="0.84" fill="#2C2824"/>
    <circle cx="129.0" cy="174.3" r="0.74" fill="#2C2824"/>
    <circle cx="118.0" cy="98.5" r="1.23" fill="#2C2824"/>
    <circle cx="114.3" cy="81.7" r="0.72" fill="#2C2824"/>
    <circle cx="153.1" cy="105.4" r="0.88" fill="#2C2824"/>
    <circle cx="115.0" cy="13.1" r="1.38" fill="#2C2824"/>
    <circle cx="76.6" cy="96.4" r="0.52" fill="#2C2824"/>
    <circle cx="24.9" cy="38.0" r="1.29" fill="#2C2824"/>
    <circle cx="195.2" cy="170.4" r="0.75" fill="#2C2824"/>
    <circle cx="141.3" cy="101.8" r="0.71" fill="#2C2824"/>
    <circle cx="0.3" cy="168.3" r="1.43" fill="#2C2824"/>
    <circle cx="190.8" cy="134.3" r="0.59" fill="#2C2824"/>
    <circle cx="127.0" cy="137.6" r="0.51" fill="#2C2824"/>
    <circle cx="41.1" cy="6.7" r="0.54" fill="#2C2824"/>
    <circle cx="185.2" cy="67.4" r="1.45" fill="#2C2824"/>
    <circle cx="56.5" cy="13.8" r="1.04" fill="#2C2824"/>
    <circle cx="120.1" cy="131.6" r="0.56" fill="#2C2824"/>
    <circle cx="176.5" cy="136.9" r="0.92" fill="#2C2824"/>
    <circle cx="46.2" cy="121.3" r="1.06" fill="#2C2824"/>
    <circle cx="85.3" cy="81.1" r="0.93" fill="#2C2824"/>
    <circle cx="144.9" cy="16.1" r="1.15" fill="#2C2824"/>
    <circle cx="129.7" cy="175.6" r="0.99" fill="#2C2824"/>
    <circle cx="144.8" cy="71.1" r="0.56" fill="#2C2824"/>
    <circle cx="146.7" cy="109.9" r="0.84" fill="#2C2824"/>
    <circle cx="128.6" cy="118.3" r="1.28" fill="#2C2824"/>
    <circle cx="174.5" cy="147.9" r="0.98" fill="#2C2824"/>
    <circle cx="73.5" cy="119.7" r="0.80" fill="#2C2824"/>
    <circle cx="82.2" cy="82.2" r="1.18" fill="#2C2824"/>
    <circle cx="70.9" cy="37.9" r="1.29" fill="#2C2824"/>
    <circle cx="112.1" cy="197.7" r="1.41" fill="#2C2824"/>
    <circle cx="119.0" cy="101.7" r="1.36" fill="#2C2824"/>
    <circle cx="50.4" cy="12.1" r="0.52" fill="#2C2824"/>
    <circle cx="193.8" cy="96.3" r="1.36" fill="#2C2824"/>
    <circle cx="162.1" cy="53.2" r="0.87" fill="#2C2824"/>
    <circle cx="51.1" cy="11.7" r="1.25" fill="#2C2824"/>
    <circle cx="123.3" cy="127.1" r="1.39" fill="#2C2824"/>
    <circle cx="159.3" cy="125.5" r="1.01" fill="#2C2824"/>
    <circle cx="182.6" cy="81.5" r="1.32" fill="#2C2824"/>
    <circle cx="17.2" cy="175.2" r="1.34" fill="#2C2824"/>
    <circle cx="48.6" cy="23.7" r="0.89" fill="#2C2824"/>
    <circle cx="57.6" cy="193.3" r="1.07" fill="#2C2824"/>
    <circle cx="115.4" cy="92.2" r="0.85" fill="#2C2824"/>
    <circle cx="97.8" cy="95.1" r="1.16" fill="#2C2824"/>
    <circle cx="43.4" cy="136.8" r="1.12" fill="#2C2824"/>
    <circle cx="99.8" cy="14.0" r="0.98" fill="#2C2824"/>
    <circle cx="47.1" cy="123.9" r="1.03" fill="#2C2824"/>
    <circle cx="0.4" cy="165.2" r="1.02" fill="#2C2824"/>
    <circle cx="57.2" cy="124.6" r="1.23" fill="#2C2824"/>
    <circle cx="192.8" cy="98.7" r="1.41" fill="#2C2824"/>
    <circle cx="124.4" cy="55.5" r="1.47" fill="#2C2824"/>
    <circle cx="103.2" cy="127.0" r="1.26" fill="#2C2824"/>
    <circle cx="149.7" cy="162.4" r="1.30" fill="#2C2824"/>
    <circle cx="171.8" cy="120.2" r="0.87" fill="#2C2824"/>
    <circle cx="135.3" cy="44.3" r="0.80" fill="#2C2824"/>
    <circle cx="66.0" cy="179.6" r="0.73" fill="#2C2824"/>
    <circle cx="66.4" cy="34.0" r="1.40" fill="#2C2824"/>
    <circle cx="140.4" cy="160.4" r="1.20" fill="#2C2824"/>
    <circle cx="82.4" cy="45.4" r="0.66" fill="#2C2824"/>
    <circle cx="177.4" cy="80.0" r="0.56" fill="#2C2824"/>
    <circle cx="26.1" cy="125.9" r="0.70" fill="#2C2824"/>
    <circle cx="48.6" cy="187.7" r="0.90" fill="#2C2824"/>
    <circle cx="99.5" cy="66.6" r="0.73" fill="#2C2824"/>
    <circle cx="52.5" cy="137.7" r="0.98" fill="#2C2824"/>
    <circle cx="179.0" cy="102.1" r="0.62" fill="#2C2824"/>
    <circle cx="29.1" cy="110.0" r="0.83" fill="#2C2824"/>
    <circle cx="46.6" cy="43.8" r="0.90" fill="#2C2824"/>
    <circle cx="68.0" cy="104.6" r="0.57" fill="#2C2824"/>
    <circle cx="86.8" cy="184.1" r="1.13" fill="#2C2824"/>
    <circle cx="83.3" cy="126.8" r="1.42" fill="#2C2824"/>
    <circle cx="39.7" cy="139.4" r="1.02" fill="#2C2824"/>
    <circle cx="122.6" cy="68.5" r="1.07" fill="#2C2824"/>
    <circle cx="99.1" cy="67.4" r="0.86" fill="#2C2824"/>
    <circle cx="64.0" cy="48.6" r="0.54" fill="#2C2824"/>
    <circle cx="86.4" cy="164.8" r="0.96" fill="#2C2824"/>
    <circle cx="112.2" cy="81.3" r="1.07" fill="#2C2824"/>
    <circle cx="98.8" cy="164.9" r="0.89" fill="#2C2824"/>
    <circle cx="47.7" cy="137.5" r="1.43" fill="#2C2824"/>
    <circle cx="153.9" cy="160.2" r="0.69" fill="#2C2824"/>
    <circle cx="36.8" cy="24.4" r="1.21" fill="#2C2824"/>
    <circle cx="96.8" cy="109.6" r="1.11" fill="#2C2824"/>
    <circle cx="2.5" cy="105.5" r="0.73" fill="#2C2824"/>
    <circle cx="56.1" cy="167.1" r="1.10" fill="#2C2824"/>
    <circle cx="121.9" cy="66.3" r="1.30" fill="#2C2824"/>
    <circle cx="43.0" cy="155.2" r="1.10" fill="#2C2824"/>
    <circle cx="185.6" cy="126.7" r="0.79" fill="#2C2824"/>
    <circle cx="90.2" cy="19.4" r="1.46" fill="#2C2824"/>
    <circle cx="95.9" cy="94.4" r="0.59" fill="#2C2824"/>
    <circle cx="38.1" cy="145.7" r="0.88" fill="#2C2824"/>
    <circle cx="42.0" cy="81.0" r="0.62" fill="#2C2824"/>
    <circle cx="33.0" cy="88.7" r="0.90" fill="#2C2824"/>
    <circle cx="13.4" cy="20.3" r="1.08" fill="#2C2824"/>
    <circle cx="82.7" cy="20.5" r="1.17" fill="#2C2824"/>
    <circle cx="35.9" cy="182.9" r="1.11" fill="#2C2824"/>
    <circle cx="85.8" cy="55.5" r="0.71" fill="#2C2824"/>
    <circle cx="37.0" cy="132.8" r="0.88" fill="#2C2824"/>
    <circle cx="187.9" cy="35.7" r="0.86" fill="#2C2824"/>
    <circle cx="79.8" cy="79.7" r="1.01" fill="#2C2824"/>
    <circle cx="152.8" cy="149.4" r="0.97" fill="#2C2824"/>
    <circle cx="130.6" cy="146.2" r="0.67" fill="#2C2824"/>
    <circle cx="159.6" cy="86.1" r="1.47" fill="#2C2824"/>
    <circle cx="90.2" cy="31.5" r="1.46" fill="#2C2824"/>
    <circle cx="34.8" cy="144.5" r="0.60" fill="#2C2824"/>
    <circle cx="60.5" cy="93.2" r="0.75" fill="#2C2824"/>
    <circle cx="14.4" cy="33.6" r="0.93" fill="#2C2824"/>
    <circle cx="107.4" cy="132.2" r="0.91" fill="#2C2824"/>
    <circle cx="148.8" cy="109.8" r="0.55" fill="#2C2824"/>
    <circle cx="59.4" cy="23.6" r="1.28" fill="#2C2824"/>
    <circle cx="61.1" cy="114.4" r="0.68" fill="#2C2824"/>
    <circle cx="68.7" cy="175.0" r="0.73" fill="#2C2824"/>
    <circle cx="6.3" cy="162.2" r="1.26" fill="#2C2824"/>
    <circle cx="41.9" cy="53.4" r="0.60" fill="#2C2824"/>
    <circle cx="39.5" cy="47.6" r="0.76" fill="#2C2824"/>
    <circle cx="178.5" cy="105.3" r="0.63" fill="#2C2824"/>
    <circle cx="17.1" cy="17.7" r="1.19" fill="#2C2824"/>
    <circle cx="62.8" cy="23.6" r="0.82" fill="#2C2824"/>
    <circle cx="60.8" cy="139.3" r="0.85" fill="#2C2824"/>
    <circle cx="26.4" cy="124.5" r="1.21" fill="#2C2824"/>
    <circle cx="175.1" cy="120.8" r="1.10" fill="#2C2824"/>
    <circle cx="0.6" cy="179.3" r="0.70" fill="#2C2824"/>
    <circle cx="67.5" cy="36.5" r="1.40" fill="#2C2824"/>
    <circle cx="60.0" cy="151.4" r="1.00" fill="#2C2824"/>
    <circle cx="184.4" cy="35.1" r="1.48" fill="#2C2824"/>
    <circle cx="145.0" cy="47.1" r="1.39" fill="#2C2824"/>
    <circle cx="101.0" cy="111.3" r="0.60" fill="#2C2824"/>
    <circle cx="147.0" cy="123.0" r="1.18" fill="#2C2824"/>
    <circle cx="185.5" cy="8.8" r="0.74" fill="#2C2824"/>
    <circle cx="50.2" cy="50.8" r="1.05" fill="#2C2824"/>
    <circle cx="197.5" cy="134.1" r="0.88" fill="#2C2824"/>
    <circle cx="9.8" cy="183.9" r="0.73" fill="#2C2824"/>
    <circle cx="11.2" cy="110.3" r="0.99" fill="#2C2824"/>
    <circle cx="157.3" cy="13.6" r="0.94" fill="#2C2824"/>
    <circle cx="27.3" cy="188.7" r="1.18" fill="#2C2824"/>
    <circle cx="143.5" cy="126.1" r="0.53" fill="#2C2824"/>
    <circle cx="136.0" cy="145.2" r="0.66" fill="#2C2824"/>
    <circle cx="178.6" cy="100.7" r="1.26" fill="#2C2824"/>
    <circle cx="48.7" cy="174.2" r="0.53" fill="#2C2824"/>
    <circle cx="38.8" cy="127.5" r="0.77" fill="#2C2824"/>
    <circle cx="111.4" cy="64.1" r="0.57" fill="#2C2824"/>
    <circle cx="25.4" cy="38.0" r="0.66" fill="#2C2824"/>
    <circle cx="63.8" cy="11.3" r="1.16" fill="#2C2824"/>
    <circle cx="144.4" cy="27.9" r="1.31" fill="#2C2824"/>
    <circle cx="83.6" cy="73.1" r="0.82" fill="#2C2824"/>
    <circle cx="144.8" cy="94.5" r="1.10" fill="#2C2824"/>
    <circle cx="158.7" cy="108.2" r="1.13" fill="#2C2824"/>
    <circle cx="30.1" cy="176.4" r="0.54" fill="#2C2824"/>
    <circle cx="109.3" cy="90.7" r="1.01" fill="#2C2824"/>
    <circle cx="52.8" cy="162.3" r="0.69" fill="#2C2824"/>
    <circle cx="142.9" cy="65.1" r="1.12" fill="#2C2824"/>
    <circle cx="73.1" cy="63.7" r="1.30" fill="#2C2824"/>
    <circle cx="8.8" cy="114.7" r="1.03" fill="#2C2824"/>
    <circle cx="132.8" cy="164.1" r="1.19" fill="#2C2824"/>
    <circle cx="91.8" cy="77.7" r="1.36" fill="#2C2824"/>
    <circle cx="23.0" cy="78.4" r="0.55" fill="#2C2824"/>
    <circle cx="150.6" cy="134.0" r="1.00" fill="#2C2824"/>
    <circle cx="163.4" cy="8.3" r="1.23" fill="#2C2824"/>
    <circle cx="129.0" cy="3.6" r="0.68" fill="#2C2824"/>
    <circle cx="9.6" cy="3.2" r="1.24" fill="#2C2824"/>
    <circle cx="111.1" cy="110.6" r="1.05" fill="#2C2824"/>
    <circle cx="148.1" cy="164.7" r="1.18" fill="#2C2824"/>
    <circle cx="105.1" cy="125.1" r="1.05" fill="#2C2824"/>
    <circle cx="133.1" cy="138.8" r="1.35" fill="#2C2824"/>
    <circle cx="174.2" cy="22.8" r="1.45" fill="#2C2824"/>
    <circle cx="66.5" cy="98.3" r="1.01" fill="#2C2824"/>
    <circle cx="55.5" cy="133.7" r="0.95" fill="#2C2824"/>
    <circle cx="88.1" cy="23.6" r="0.83" fill="#2C2824"/>
  </g>
</svg>