<svg xmlns="http://www.w3.org/2000/svg" viewBox="0 0 200 200" width="200" height="200">
  <defs>
    <radialGradient id="fade">
      <stop offset="0%" stop-color="white" stop-opacity="1"/>
      <stop offset="55%" stop-color="white" stop-opacity="0.85"/>
      <stop offset="100%" stop-color="white" stop-opacity="0"/>
    </radialGradient>
    <mask id="edge-fade">
      <rect width="200" height="200" fill="url(#fade)"/>
    </mask>
  </defs>
  <g mask="url(#edge-fade)">
    <circle cx="52.1" cy="161.0" r="1.43" fill="#C4724E"/>
    <circle cx="21.1" cy="79.3" r="1.04" fill="#C4724E"/>
    <circle cx="12.9" cy="67.8" r="0.90" fill="#C4724E"/>
    <circle cx="37.5" cy="91.6" r="1.19" fill="#C4724E"/>
    <circle cx="54.6" cy="111.4" r="1.06" fill="#C4724E"/>
    <circle cx="91.2" cy="137.6" r="0.96" fill="#C4724E"/>
    <circle cx="48.4" cy="138.1" r="1.68" fill="#C4724E"/>
    <circle cx="121.1" cy="140.3" r="0.93" fill="#C4724E"/>
    <circle cx="118.5" cy="153.7" r="0.79" fill="#C4724E"/>
    <circle cx="4.2" cy="129.3" r="1.25" fill="#C4724E"/>
    <circle cx="59.3" cy="144.4" r="1.20" fill="#C4724E"/>
    <circle cx="139.9" cy="50.9" r="1.34" fill="#C4724E"/>
    <circle cx="153.6" cy="29.9" r="0.70" fill="#C4724E"/>
    <circle cx="55.1" cy="126.2" r="1.00" fill="#C4724E"/>
    <circle cx="169.7" cy="13.4" r="0.64" fill="#C4724E"/>
    <circle cx="113.2" cy="111.5" r="0.61" fill="#C4724E"/>
    <circle cx="114.7" cy="158.9" r="0.77" fill="#C4724E"/>
    <circle cx="15.1" cy="81.9" r="1.19" fill="#C4724E"/>
    <circle cx="15.8" cy="8.5" r="1.03" fill="#C4724E"/>
    <circle cx="144.6" cy="183.5" r="1.56" fill="#C4724E"/>
    <circle cx="167.8" cy="120.3" r="0.84" fill="#C4724E"/>
    <circle cx="107.3" cy="63.4" r="1.00" fill="#C4724E"/>
    <circle cx="31.6" cy="96.2" r="0.78" fill="#C4724E"/>
    <circle cx="114.8" cy="100.0" r="1.41" fill="#C4724E"/>
    <circle cx="134.3" cy="173.4" r="0.92" fill="#C4724E"/>
    <circle cx="156.9" cy="65.0" r="1.50" fill="#C4724E"/>
    <circle cx="43.1" cy="71.1" r="1.41" fill="#C4724E"/>
    <circle cx="30.7" cy="129.4" r="0.95" fill="#C4724E"/>
    <circle cx="163.2" cy="199.7" r="1.78" fill="#C4724E"/>
    <circle cx="36.1" cy="14.6" r="1.21" fill="#C4724E"/>
    <circle cx="84.7" cy="99.4" r="1.56" fill="#C4724E"/>
    <circle cx="111.9" cy="171.2" r="1.64" fill="#C4724E"/>
    <circle cx="88.3" cy="67.7" r="1.26" fill="#C4724E"/>
    <circle cx="125.2" cy="21.2" r="0.66" fill="#C4724E"/>
    <circle cx="131.0" cy="145.0" r="0.89" fill="#C4724E"/>
    <circle cx="70.4" cy="102.7" r="1.47" fill="#C4724E"/>
    <circle cx="104.6" cy="180.0" r="1.36" fill="#C4724E"/>
    <circle cx="101.9" cy="103.5" r="0.92" fill="#C4724E"/>
    <circle cx="45.6" cy="75.2" r="1.11" fill="#C4724E"/>
    <circle cx="111.9" cy="150.9" r="1.46" fill="#C4724E"/>
    <circle cx="130.9" cy="153.2" r="1.14" fill="#C4724E"/>
    <circle cx="110.2" cy="11.4" r="0.73" fill="#C4724E"/>
    <circle cx="120.4" cy="103.2" r="0.97" fill="#C4724E"/>
    <circle cx="31.7" cy="88.5" r="1.49" fill="#C4724E"/>
    <circle cx="114.1" cy="65.6" r="0.66" fill="#C4724E"/>
    <circle cx="109.1" cy="80.2" r="0.89" fill="#C4724E"/>
    <circle cx="78.8" cy="9.2" r="0.61" fill="#C4724E"/>
    <circle cx="162.0" cy="125.2" r="1.03" fill="#C4724E"/>
    <circle cx="51.0" cy="176.8" r="1.40" fill="#C4724E"/>
    <circle cx="66.4" cy="170.2" r="1.11" fill="#C4724E"/>
    <circle cx="28.2" cy="149.0" r="1.74" fill="#C4724E"/>
    <circle cx="150.8" cy="181.9" r="1.03" fill="#C4724E"/>
    <circle cx="76.8" cy="154.8" r="1.65" fill="#C4724E"/>
    <circle cx="20.9" cy="9.9" r="1.09" fill="#C4724E"/>
    <circle cx="93.1" cy="52.3" r="1.69" fill="#C4724E"/>
    <circle cx="127.1" cy="52.6" r="1.41" fill="#C4724E"/>
    <circle cx="92.1" cy="175.8" r="1.43" fill="#C4724E"/>
    <circle cx="197.3" cy="103.0" r="1.05" fill="#C4724E"/>
    <circle cx="105.3" cy="105.4" r="1.10" fill="#C4724E"/>
    <circle cx="87.8" cy="101.8" r="0.65" fill="#C4724E"/>
    <circle cx="105.8" cy="152.4" r="0.76" fill="#C4724E"/>
    <circle cx="14.5" cy="145.3" r="1.72" fill="#C4724E"/>
    <circle cx="107.3" cy="172.8" r="1.33" fill="#C4724E"/>
    <circle cx="12.8" cy="87.5" r="1.01" fill="#C4724E"/>
    <circle cx="181.8" cy="63.0" r="1.69" fill="#C4724E"/>
    <circle cx="172.0" cy="51.8" r="1.77" fill="#C4724E"/>
    <circle cx="87.1" cy="1.5" r="0.72" fill="#C4724E"/>
    <circle cx="32.9" cy="82.1" r="1.04" fill="#C4724E"/>
    <circle cx="189.4" cy="141.9" r="1.57" fill="#C4724E"/>
    <circle cx="23.3" cy="74.9" r="1.78" fill="#C4724E"/>
    <circle cx="175.5" cy="19.2" r="0.75" fill="#C4724E"/>
    <circle cx="107.6" cy="151.6" r="0.67" fill="#C4724E"/>
    <circle cx="69.3" cy="89.8" r="1.01" fill="#C4724E"/>
    <circle cx="159.3" cy="134.8" r="1.15" fill="#C4724E"/>
    <circle cx="141.6" cy="24.5" r="1.25" fill="#C4724E"/>
    <circle cx="66.0" cy="32.1" r="1.17" fill="#C4724E"/>
    <circle cx="46.4" cy="100.3" r="1.05" fill="#C4724E"/>
    <circle cx="7.1" cy="33.4" r="1.41" fill="#C4724E"/>
    <circle cx="86.8" cy="53.4" r="0.79" fill="#C4724E"/>
    <circle cx="94.9" cy="76.9" r="1.52" fill="#C4724E"/>
    <circle cx="112.6" cy="136.6" r="1.47" fill="#C4724E"/>
    <circle cx="181.9" cy="97.2" r="1.77" fill="#C4724E"/>
    <circle cx="158.6" cy="116.6" r="1.22" fill="#C4724E"/>
    <circle cx="173.9" cy="78.3" r="1.72" fill="#C4724E"/>
    <circle cx="131.1" cy="17.7" r="1.79" fill="#C4724E"/>
    <circle cx="76.0" cy="118.1" r="1.20" fill="#C4724E"/>
    <circle cx="49.4" cy="137.3" r="0.70" fill="#C4724E"/>
    <circle cx="8.8" cy="61.7" r="0.92" fill="#C4724E"/>
    <circle cx="93.1" cy="73.9" r="1.17" fill="#C4724E"/>
    <circle cx="48.4" cy="31.0" r="0.99" fill="#C4724E"/>
    <circle cx="59.1" cy="123.9" r="1.26" fill="#C4724E"/>
    <circle cx="108.1" cy="167.6" r="1.60" fill="#C4724E"/>
    <circle cx="116.1" cy="108.1" r="1.47" fill="#C4724E"/>
    <circle cx="114.5" cy="129.0" r="1.25" fill="#C4724E"/>
    <circle cx="128.6" cy="3.7" r="1.40" fill="#C4724E"/>
    <circle cx="80.1" cy="177.5" r="1.47" fill="#C4724E"/>
    <circle cx="85.4" cy="184.7" r="1.39" fill="#C4724E"/>
    <circle cx="62.7" cy="63.8" r="0.71" fill="#C4724E"/>
    <circle cx="169.5" cy="123.1" r="1.12" fill="#C4724E"/>
    <circle cx="82.6" cy="164.1" r="0.71" fill="#C4724E"/>
    <circle cx="17.8" cy="95.0" r="1.63" fill="#C4724E"/>
    <circle cx="64.0" cy="49.0" r="1.80" fill="#C4724E"/>
    <circle cx="64.0" cy="118.3" r="1.05" fill="#C4724E"/>
    <circle cx="108.6" cy="110.0" r="1.39" fill="#C4724E"/>
    <circle cx="73.6" cy="160.2" r="0.98" fill="#C4724E"/>
    <circle cx="158.8" cy="19.7" r="1.80" fill="#C4724E"/>
    <circle cx="158.4" cy="148.4" r="1.05" fill="#C4724E"/>
    <circle cx="102.2" cy="146.7" r="1.57" fill="#C4724E"/>
    <circle cx="155.9" cy="54.3" r="1.21" fill="#C4724E"/>
    <circle cx="96.4" cy="37.2" r="1.65" fill="#C4724E"/>
    <circle cx="197.2" cy="140.7" r="1.48" fill="#C4724E"/>
    <circle cx="137.6" cy="195.9" r="1.39" fill="#C4724E"/>
    <circle cx="106.1" cy="94.1" r="1.68" fill="#C4724E"/>
    <circle cx="68.7" cy="182.3" r="1.68" fill="#C4724E"/>
    <circle cx="128.6" cy="90.1" r="0.66" fill="#C4724E"/>
    <circle cx="27.8" cy="95.3" r="1.16" fill="#C4724E"/>
    <circle cx="18.1" cy="101.2" r="1.15" fill="#C4724E"/>
    <circle cx="133.3" cy="130.8" r="0.96" fill="#C4724E"/>
    <circle cx="77.9" cy="78.4" r="1.24" fill="#C4724E"/>
    <circle cx="52.7" cy="143.8" r="1.10" fill="#C4724E"/>
    <circle cx="61.2" cy="82.0" r="0.88" fill="#C4724E"/>
    <circle cx="36.8" cy="171.6" r="1.63" fill="#C4724E"/>
    <circle cx="88.3" cy="95.7" r="1.40" fill="#C4724E"/>
    <circle cx="90.8" cy="88.6" r="0.96" fill="#C4724E"/>
    <circle cx="93.2" cy="192.2" r="1.31" fill="#C4724E"/>
    <circle cx="130.5" cy="123.5" r="0.64" fill="#C4724E"/>
    <circle cx="87.2" cy="80.9" r="1.01" fill="#C4724E"/>
    <circle cx="144.6" cy="4.2" r="0.94" fill="#C4724E"/>
    <circle cx="50.8" cy="118.4" r="1.03" fill="#C4724E"/>
    <circle cx="170.0" cy="136.2" r="1.32" fill="#C4724E"/>
    <circle cx="140.3" cy="24.6" r="0.87" fill="#C4724E"/>
    <circle cx="172.4" cy="35.9" r="1.07" fill="#C4724E"/>
    <circle cx="120.2" cy="82.5" r="1.20" fill="#C4724E"/>
    <circle cx="171.6" cy="133.1" r="0.94" fill="#C4724E"/>
    <circle cx="88.0" cy="65.5" r="1.36" fill="#C4724E"/>
    <circle cx="130.9" cy="147.6" r="1.41" fill="#C4724E"/>
    <circle cx="59.7" cy="2.1" r="1.30" fill="#C4724E"/>
    <circle cx="44.1" cy="134.4" r="0.94" fill="#C4724E"/>
    <circle cx="48.9" cy="151.2" r="1.64" fill="#C4724E"/>
    <circle cx="192.2" cy="134.2" r="0.63" fill="#C4724E"/>
    <circle cx="75.5" cy="96.2" r="1.56" fill="#C4724E"/>
    <circle cx="85.6" cy="158.0" r="1.12" fill="#C4724E"/>
    <circle cx="163.0" cy="84.8" r="1.64" fill="#C4724E"/>
    <circle cx="91.8" cy="96.7" r="0.72" fill="#C4724E"/>
    <circle cx="136.8" cy="48.5" r="1.21" fill="#C4724E"/>
    <circle cx="79.8" cy="125.0" r="1.71" fill="#C4724E"/>
    <circle cx="50.7" cy="196.8" r="1.43" fill="#C4724E"/>
    <circle cx="134.8" cy="180.6" r="0.76" fill="#C4724E"/>
    <circle cx="178.4" cy="96.2" r="1.06" fill="#C4724E"/>
    <circle cx="71.0" cy="91.8" r="1.35" fill="#C4724E"/>
    <circle cx="118.0" cy="104.0" r="1.78" fill="#C4724E"/>
    <circle cx="187.3" cy="90.7" r="1.36" fill="#C4724E"/>
    <circle cx="145.8" cy="66.2" r="1.14" fill="#C4724E"/>
    <circle cx="103.7" cy="71.9" r="1.07" fill="#C4724E"/>
    <circle cx="66.2" cy="177.8" r="0.73" fill="#C4724E"/>
    <circle cx="128.8" cy="9.9" r="1.49" fill="#C4724E"/>
    <circle cx="124.3" cy="75.1" r="0.79" fill="#C4724E"/>
    <circle cx="95.0" cy="81.0" r="1.10" fill="#C4724E"/>
    <circle cx="22.9" cy="113.6" r="0.88" fill="#C4724E"/>
    <circle cx="81.1" cy="91.7" r="1.53" fill="#C4724E"/>
    <circle cx="44.5" cy="106.8" r="1.73" fill="#C4724E"/>
    <circle cx="198.0" cy="148.6" r="1.05" fill="#C4724E"/>
    <circle cx="194.5" cy="163.9" r="1.72" fill="#C4724E"/>
    <circle cx="24.7" cy="62.0" r="1.31" fill="#C4724E"/>
    <circle cx="59.7" cy="194.0" r="1.70" fill="#C4724E"/>
    <circle cx="25.9" cy="99.1" r="1.15" fill="#C4724E"/>
    <circle cx="171.8" cy="60.0" r="0.61" fill="#C4724E"/>
    <circle cx="71.9" cy="156.6" r="0.88" fill="#C4724E"/>
    <circle cx="60.5" cy="77.3" r="1.23" fill="#C4724E"/>
    <circle cx="63.4" cy="137.6" r="1.49" fill="#C4724E"/>
    <circle cx="94.2" cy="163.9" r="0.98" fill="#C4724E"/>
    <circle cx="140.3" cy="174.2" r="1.69" fill="#C4724E"/>
    <circle cx="90.8" cy="55.7" r="1.37" fill="#C4724E"/>
    <circle cx="173.2" cy="46.9" r="1.39" fill="#C4724E"/>
    <circle cx="135.0" cy="142.0" r="0.68" fill="#C4724E"/>
    <circle cx="141.5" cy="158.0" r="0.81" fill="#C4724E"/>
    <circle cx="74.0" cy="56.0" r="1.71" fill="#C4724E"/>
    <circle cx="123.5" cy="139.7" r="1.71" fill="#C4724E"/>
    <circle cx="178.4" cy="78.0" r="1.72" fill="#C4724E"/>
    <circle cx="121.1" cy="13.1" r="0.97" fill="#C4724E"/>
    <circle cx="27.2" cy="81.0" r="1.46" fill="#C4724E"/>
    <circle cx="44.4" cy="71.3" r="0.73" fill="#C4724E"/>
    <circle cx="154.2" cy="80.3" r="0.70" fill="#C4724E"/>
    <circle cx="35.0" cy="134.3" r="0.99" fill="#C4724E"/>
    <circle cx="79.3" cy="83.1" r="0.96" fill="#C4724E"/>
    <circle cx="22.3" cy="138.5" r="0.82" fill="#C4724E"/>
    <circle cx="80.8" cy="100.1" r="1.60" fill="#C4724E"/>
    <circle cx="73.1" cy="72.2" r="0.90" fill="#C4724E"/>
    <circle cx="109.5" cy="61.5" r="1.35" fill="#C4724E"/>
    <circle cx="122.5" cy="114.8" r="1.29" fill="#C4724E"/>
    <circle cx="86.5" cy="146.6" r="0.95" fill="#C4724E"/>
    <circle cx="112.9" cy="110.8" r="1.00" fill="#C4724E"/>
    <circle cx="79.3" cy="172.4" r="1.29" fill="#C4724E"/>
    <circle cx="134.4" cy="130.6" r="1.21" fill="#C4724E"/>
    <circle cx="68.5" cy="174.2" r="0.76" fill="#C4724E"/>
    <circle cx="76.9" cy="108.0" r="1.32" fill="#C4724E"/>
    <circle cx="142.5" cy="17.4" r="1.11" fill="#C4724E"/>
  </g>
</svg>